<svg xmlns="http://www.w3.org/2000/svg" width="24" height="24" viewBox="0 0 24 24"><g fill="none"><path fill="#66e1ff" d="M20.609 3.391v5.261H3.392v-5.26A2.39 2.39 0 0 1 5.782 1h12.436a2.39 2.39 0 0 1 2.391 2.391"/><path fill="#c2f3ff" d="M5.783 1a2.39 2.39 0 0 0-2.391 2.391v5.261h3.64L14.684 1z"/><path fill="#e3e3e3" d="M20.609 15.348v5.26A2.39 2.39 0 0 1 18.217 23H12v-7.652zm-8.609 0V23H5.783a2.39 2.39 0 0 1-2.391-2.391v-5.261z"/><path fill="#b2b2b2" d="M18.217 20.609H12V23h6.217a2.39 2.39 0 0 0 2.392-2.391v-2.392a2.39 2.39 0 0 1-2.392 2.392M3.392 18.217v2.392A2.39 2.39 0 0 0 5.782 23H12v-2.391H5.783a2.39 2.39 0 0 1-2.391-2.392"/><path stroke="#191919" stroke-linecap="round" stroke-linejoin="round" d="M20.609 15.348v5.26A2.39 2.39 0 0 1 18.217 23H12v-7.652zm-8.609 0V23H5.783a2.39 2.39 0 0 1-2.391-2.391v-5.261z" stroke-width="1"/><path fill="#e3e3e3" stroke="#191919" stroke-linecap="round" stroke-linejoin="round" d="M12 8.652H3.392v6.696H12zm8.609 0H12v6.696h8.609z" stroke-width="1"/><path stroke="#191919" stroke-linecap="round" stroke-linejoin="round" d="M20.609 3.391v5.261H3.392v-5.26A2.39 2.39 0 0 1 5.782 1h12.436a2.39 2.39 0 0 1 2.391 2.391M5.783 12.478h2.87m6.217 0h2.87m-2.87 7.652h2.87m-2.87-1.913h2.87M7.219 11.044v2.869M5.783 17.74l2.87 2.869m0-2.869l-2.87 2.869M16.787 5.783V3.87" stroke-width="1"/></g></svg>